<svg xmlns="http://www.w3.org/2000/svg" xmlns:xlink="http://www.w3.org/1999/xlink" viewBox="0 0 729.71 150"><defs><linearGradient id="a" x1="156.67" y1="-13.66" x2="11.48" y2="143.96" gradientUnits="userSpaceOnUse"><stop offset="0" stop-color="aqua"/><stop offset="0.44" stop-color="#19aeef"/><stop offset="0.82" stop-color="#2e6de2"/><stop offset="1" stop-color="#3654dd"/></linearGradient><linearGradient id="b" x1="158.8" y1="-11.7" x2="13.62" y2="145.9" xlink:href="#a"/></defs><path d="M199.39,35.25a5,5,0,0,0-5,5.1v74.76a5,5,0,1,0,10.09,0V40.35A5.07,5.07,0,0,0,199.39,35.25Z" fill="#1b012e"/><path d="M219.21,77.14l28.72-34.06a4.7,4.7,0,0,0-3.56-7.83A5,5,0,0,0,240.69,37L209.12,74.65a4.83,4.83,0,0,0-1.06,3.08,4.4,4.4,0,0,0,1.18,3.09l31.45,37.5a4.69,4.69,0,0,0,3.92,1.9,5,5,0,0,0,5-5,5.14,5.14,0,0,0-1.19-3.32Z" fill="#1b012e"/><path d="M322.1,57.8a4.76,4.76,0,0,0-4.75,4.74v4.51a30.44,30.44,0,0,0-22.19-9.49c-17.45,0-30.74,13.88-30.74,31.45s13.29,31.44,30.74,31.44A30,30,0,0,0,317.35,111v4.39a4.79,4.79,0,0,0,4.75,4.87,4.71,4.71,0,0,0,4.74-4.87V62.54A4.67,4.67,0,0,0,322.1,57.8ZM317.35,90c-.47,12.35-9.85,21.72-21.6,21.72-12.1,0-21.71-9.85-21.71-22.66s9.61-22.67,21.71-22.67c11.75,0,21.13,9.38,21.6,21.72Z" fill="#1b012e"/><path d="M383.21,67.53a4.46,4.46,0,0,0,4.39-4.4,4.38,4.38,0,0,0-4.39-4.39H367.54V48.06a4.6,4.6,0,0,0-4.74-4.74,4.68,4.68,0,0,0-4.75,4.74V58.74h-6.29a4.38,4.38,0,0,0-4.39,4.39,4.46,4.46,0,0,0,4.39,4.4h6.29V94.35c0,15.9,10.44,25.87,25.16,25.87a4.45,4.45,0,0,0,0-8.9c-9.38,0-15.67-5.94-15.67-17V67.53Z" fill="#1b012e"/><path d="M462.71,57.8A4.75,4.75,0,0,0,458,62.54v4.51a30.44,30.44,0,0,0-22.2-9.49C418.33,57.56,405,71.44,405,89s13.29,31.44,30.73,31.44A30,30,0,0,0,458,111v4.39a4.79,4.79,0,0,0,4.74,4.87,4.72,4.72,0,0,0,4.75-4.87V62.54A4.68,4.68,0,0,0,462.71,57.8ZM458,90c-.48,12.35-9.85,21.72-21.6,21.72-12.11,0-21.72-9.85-21.72-22.66s9.61-22.67,21.72-22.67c11.75,0,21.12,9.38,21.6,21.72Z" fill="#1b012e"/><path d="M526,57.56a30.24,30.24,0,0,0-22.19,9.49V62.54A4.76,4.76,0,0,0,499,57.8a4.68,4.68,0,0,0-4.75,4.74V137.9a4.71,4.71,0,0,0,4.75,4.86,4.79,4.79,0,0,0,4.75-4.86V111A29.79,29.79,0,0,0,526,120.45c17.44,0,30.74-13.88,30.74-31.44S543.4,57.56,526,57.56Zm-.59,54.11c-11.87,0-21.13-9.37-21.6-21.72V88.06c.47-12.34,9.73-21.72,21.6-21.72,12.1,0,21.71,9.85,21.71,22.67S537.47,111.67,525.37,111.67Z" fill="#1b012e"/><path d="M628.13,57.8a4.68,4.68,0,0,0-4.75,4.74V93.28c0,12.1-7.35,18.39-16.61,18.39s-16.5-6.29-16.5-18.39V62.54a4.75,4.75,0,0,0-4.74-4.74,4.68,4.68,0,0,0-4.75,4.74V92.92c0,17.21,11.51,27.53,26,27.53s26.11-10.32,26.11-27.53V62.54A4.76,4.76,0,0,0,628.13,57.8Z" fill="#1b012e"/><path d="M664.32,35.25A4.68,4.68,0,0,0,659.57,40v75.36a4.72,4.72,0,0,0,4.75,4.87,4.79,4.79,0,0,0,4.75-4.87V40A4.76,4.76,0,0,0,664.32,35.25Z" fill="#1b012e"/><path d="M725.32,111.32c-9.38,0-15.67-5.94-15.67-17V67.53h15.67a4.46,4.46,0,0,0,4.39-4.4,4.38,4.38,0,0,0-4.39-4.39H709.65V48.06a4.61,4.61,0,0,0-4.75-4.74,4.67,4.67,0,0,0-4.74,4.74V58.74h-6.29a4.38,4.38,0,0,0-4.39,4.39,4.46,4.46,0,0,0,4.39,4.4h6.29V94.35c0,15.9,10.44,25.87,25.16,25.87a4.45,4.45,0,0,0,0-8.9Z" fill="#1b012e"/><path d="M8.35,8.93a9.18,9.18,0,0,0,.49,12.63L24,36.68s.05,0,.05,0V15h0A9,9,0,0,0,8.35,8.93Z" fill="none"/><path d="M39.54,60.75l-9.49-9.49a0,0,0,0,0-.05,0V98.71a0,0,0,0,0,.05,0L53.77,75a0,0,0,0,0,0,0L39.54,60.75Z" fill="none"/><path d="M24,113.32,8.64,128.64A9,9,0,0,0,15.41,144,9.18,9.18,0,0,0,24,134.72V113.35S24,113.3,24,113.32Z" fill="none"/><path d="M134.72,126H113.35s0,0,0,0l15.32,15.31h0A9,9,0,0,0,144,134.59,9.18,9.18,0,0,0,134.72,126Z" fill="none"/><path d="M134.61,120H107.26L76.42,89.15h0L62.29,75a0,0,0,0,1,0,0L88.91,48.36a3.1,3.1,0,0,0,.29-4.15,3,3,0,0,0-4.42-.2L58.05,70.74a0,0,0,0,1,0,0l-28-28V15h0A15,15,0,0,0,5.19,3.66a15.14,15.14,0,0,0-.52,22.22L24,45.2a0,0,0,0,1,0,0v59.54a0,0,0,0,1,0,0L4.39,124.39A15,15,0,0,0,13.92,150,15.14,15.14,0,0,0,30,134.61V107.28a0,0,0,0,1,0,0l28-28a0,0,0,0,1,0,0L98.73,120a0,0,0,0,1,0,0H63.16A3.11,3.11,0,0,0,60,122.73,3,3,0,0,0,63,126h41.8l19.59,19.6h0A15,15,0,0,0,150,136.08,15.14,15.14,0,0,0,134.61,120ZM24,134.72A9.18,9.18,0,0,1,15.41,144a9,9,0,0,1-6.77-15.35L24,113.32s.05,0,.05,0ZM24,15V36.65s0,.05-.05,0L8.84,21.56A9.18,9.18,0,0,1,8.35,8.93,9,9,0,0,1,24,15ZM53.77,75,30.05,98.73a0,0,0,0,1-.05,0V51.29a0,0,0,0,1,.05,0l9.49,9.49h0L53.77,75A0,0,0,0,1,53.77,75ZM135,144a9,9,0,0,1-6.36-2.64h0l-15.32-15.31s0,0,0,0h21.37a9.18,9.18,0,0,1,9.27,8.59A9,9,0,0,1,135,144Z" fill="url(#a)"/><path d="M104.1,63.25a3.12,3.12,0,0,0,4.16-.29l37.35-37.35h0A15,15,0,0,0,124.7,4.1c-.11.09-.21.19-.31.29h0L104,24.76a3.11,3.11,0,0,0-.29,4.16,3,3,0,0,0,4.42.2L128.64,8.64h0a4.59,4.59,0,0,1,.39-.37,9,9,0,0,1,12.33,13.09h0L103.9,58.82A3,3,0,0,0,104.1,63.25Z" fill="url(#b)"/></svg>