<svg xmlns="http://www.w3.org/2000/svg" xmlns:xlink="http://www.w3.org/1999/xlink" viewBox="0 0 729.7 206.73"><defs><linearGradient id="a" x1="156.74" y1="227.59" x2="11.54" y2="69.98" gradientTransform="matrix(1, 0, 0, -1, 0, 214)" gradientUnits="userSpaceOnUse"><stop offset="0" stop-color="aqua"/><stop offset="0.44" stop-color="#19aeef"/><stop offset="0.82" stop-color="#2e6de2"/><stop offset="1" stop-color="#3654dd"/></linearGradient><linearGradient id="b" x1="158.82" y1="225.67" x2="13.65" y2="68.08" xlink:href="#a"/></defs><path d="M199.4,35.2a5.1,5.1,0,0,0-5,5.1v74.8a5.11,5.11,0,1,0,10.1,1.5,3.3,3.3,0,0,0,0-1.4V40.3a5.12,5.12,0,0,0-5.1-5.1Z" transform="translate(0 0.03)" fill="#fff"/><path d="M219.2,77.1l28.7-34a5.22,5.22,0,0,0,1.2-3.1,4.85,4.85,0,0,0-4.7-4.8,5.26,5.26,0,0,0-3.7,1.8L209.1,74.6a5,5,0,0,0-1,3.1,4,4,0,0,0,1.1,3.1l31.5,37.5a5,5,0,1,0,7.7-6.4Z" transform="translate(0 0.03)" fill="#fff"/><path d="M322.1,57.8a4.69,4.69,0,0,0-4.7,4.7h0v4.6a30.17,30.17,0,0,0-22.2-9.5c-17.5,0-30.8,13.8-30.8,31.4s13.3,31.5,30.8,31.5a30.17,30.17,0,0,0,22.2-9.5v4.3a4.7,4.7,0,0,0,4.5,4.9h.2a4.69,4.69,0,0,0,4.7-4.7v-53a4.65,4.65,0,0,0-4.5-4.7ZM317.4,90c-.5,12.3-9.9,21.7-21.6,21.7S274,101.8,274,89s9.6-22.7,21.8-22.7,21.1,9.4,21.6,21.8Z" transform="translate(0 0.03)" fill="#fff"/><path d="M383.2,67.5a4.4,4.4,0,1,0,0-8.8H367.5V48.1a4.66,4.66,0,0,0-4.4-4.8h-.3a4.69,4.69,0,0,0-4.8,4.6V58.7h-6.2a4.4,4.4,0,0,0,0,8.8H358V94.3c0,15.9,10.5,25.9,25.2,25.9a4.5,4.5,0,0,0,0-8.9c-9.4,0-15.7-5.9-15.7-17V67.5Z" transform="translate(0 0.03)" fill="#fff"/><path d="M462.7,57.8a4.69,4.69,0,0,0-4.7,4.7h0v4.6a30.17,30.17,0,0,0-22.2-9.5C418.3,57.6,405,71.4,405,89s13.3,31.5,30.8,31.5A30.17,30.17,0,0,0,458,111v4.3a4.79,4.79,0,1,0,9.5,1.3,3.3,3.3,0,0,0,0-1.4V62.5a4.69,4.69,0,0,0-4.7-4.7ZM458,90c-.5,12.3-9.9,21.7-21.6,21.7s-21.7-9.9-21.7-22.7,9.6-22.7,21.7-22.7,21.1,9.4,21.6,21.8Z" transform="translate(0 0.03)" fill="#fff"/><path d="M526,57.6a29.64,29.64,0,0,0-22.2,9.5V62.5a4.85,4.85,0,0,0-4.8-4.7,4.65,4.65,0,0,0-4.7,4.5v75.6a4.7,4.7,0,0,0,4.5,4.9h.2a4.89,4.89,0,0,0,4.8-4.9V111a29.64,29.64,0,0,0,22.2,9.5c17.4,0,30.7-13.9,30.7-31.5S543.4,57.6,526,57.6Zm-.6,54.1c-11.9,0-21.2-9.4-21.6-21.7V88.1c.4-12.4,9.7-21.8,21.6-21.8s21.7,9.9,21.7,22.7S537.5,111.7,525.4,111.7Z" transform="translate(0 0.03)" fill="#fff"/><path d="M628.1,57.8a4.65,4.65,0,0,0-4.7,4.5v31c0,12.1-7.4,18.4-16.6,18.4s-16.5-6.3-16.5-18.4V62.5a4.85,4.85,0,0,0-4.8-4.7,4.65,4.65,0,0,0-4.7,4.5V92.9c0,17.2,11.5,27.6,26,27.6s26.1-10.4,26.1-27.6V62.5A4.85,4.85,0,0,0,628.1,57.8Z" transform="translate(0 0.03)" fill="#fff"/><path d="M664.3,35.2a4.69,4.69,0,0,0-4.7,4.7v75.4a4.7,4.7,0,0,0,4.5,4.9h.2a4.74,4.74,0,0,0,4.8-4.8V40A5,5,0,0,0,664.3,35.2Z" transform="translate(0 0.03)" fill="#fff"/><path d="M725.3,111.3c-9.4,0-15.6-5.9-15.6-17V67.5h15.6a4.44,4.44,0,0,0,4.4-4.4h0a4.44,4.44,0,0,0-4.4-4.4H709.7V48.1a4.79,4.79,0,0,0-9.5-1.3,3.3,3.3,0,0,0,0,1.4V58.8h-6.3a4.44,4.44,0,0,0-4.4,4.4h0a4.44,4.44,0,0,0,4.4,4.4h6.3V94.4c0,15.9,10.4,25.9,25.1,25.9a4.56,4.56,0,0,0,0-9Z" transform="translate(0 0.03)" fill="#fff"/><path d="M579.4,200.6l-7.9-11.3h-6.2v11.3h-6.4V166.3h14c8,0,11,3.3,11,9.3v4.5c0,4.1-1.5,7-5.2,8.3l8.5,12.2ZM572.7,172h-7.4v11.7h7.4c3.5,0,4.7-1.3,4.7-4.2v-3.4C577.4,173.2,576.1,172,572.7,172Z" transform="translate(0 0.03)" fill="#fff"/><path d="M609.5,166.3h6.9l-11.1,24.4v10h-6.5v-10l-11.1-24.4h7l7.4,17.3Z" transform="translate(0 0.03)" fill="#fff"/><path d="M628.7,201.1A28,28,0,0,1,618,199l1.1-5.1a33,33,0,0,0,9.8,1.6c4.7,0,5.5-1,5.5-4.2s-.1-4.1-6.4-5.5c-8.2-1.9-9.4-3.4-9.4-10.7s2.8-9.4,11.6-9.4a48.84,48.84,0,0,1,9.3.9v5.7a47.21,47.21,0,0,0-9.2-1.1c-4.5,0-5.2.9-5.2,4s.1,4,6,5.5c9.2,2.1,9.8,3.7,9.8,10.5S638.8,201.1,628.7,201.1Z" transform="translate(0 0.03)" fill="#fff"/><path d="M653.8,172h-9.6v-5.7h25.7V172h-9.7v28.6h-6.4Z" transform="translate(0 0.03)" fill="#fff"/><path d="M691.7,193.5H678.9l-2.1,7.2h-6.9l10.9-34.4h9.1l10.8,34.4h-6.8Zm-11.2-5.6H690l-4.7-16.3Z" transform="translate(0 0.03)" fill="#fff"/><polygon points="546.8 200.63 554.5 200.63 541.2 183.33 553.7 166.33 546.2 166.33 536.2 180.03 534.4 180.03 534.4 166.33 527.9 166.33 527.9 200.63 534.4 200.63 534.4 186.53 536.3 186.53 546.8 200.63" fill="#fff"/><polygon points="713.1 194.93 713.1 166.33 706.5 166.33 706.5 200.63 724.8 200.63 728.6 194.93 713.1 194.93" fill="#fff"/><polygon points="499.6 199.33 499.6 179.83 484 175.93 499.6 199.33" fill="#fff"/><polygon points="491.5 165.63 483.6 173.53 500.8 177.73 517.9 173.53 510 165.63 491.5 165.63" fill="#fff"/><polygon points="501.9 199.33 517.5 175.93 501.9 179.83 501.9 199.33" fill="#fff"/><path d="M411.6,192.5v2a2.1,2.1,0,0,1-4.2,0V160.8a2.1,2.1,0,1,1,4.2,0v12.1a13.92,13.92,0,0,1,10-4.3c7.8,0,13.7,6.2,13.7,14.1a13.83,13.83,0,0,1-13.6,14,14.06,14.06,0,0,1-10.1-4.2Zm19.4-9.8c0-5.8-4.3-10.2-9.7-10.2s-9.4,4.2-9.7,9.7v.9c.3,5.5,4.4,9.7,9.7,9.7a9.82,9.82,0,0,0,9.7-9.9Z" transform="translate(0 0.03)" fill="#fff"/><path d="M442.5,194.2V170.8a2.1,2.1,0,1,1,4.2,0v18.3l16.5-19.6a1.9,1.9,0,0,1,1.5-.8,2.07,2.07,0,0,1,1.6,3.3l-28.6,34a2.13,2.13,0,0,1-1.5.7,1.89,1.89,0,0,1-2-1.8v-.1a2.11,2.11,0,0,1,.5-1.3Z" transform="translate(0 0.03)" fill="#fff"/><path d="M8.4,8.9a9.07,9.07,0,0,0,.5,12.6L24,36.6h.1V15h0a9.25,9.25,0,0,0-2.6-6.4A9.12,9.12,0,0,0,8.4,8.9Z" transform="translate(0 0.03)" fill="none"/><path d="M39.5,60.8,30,51.3h-.1V98.7H30L53.8,75h0L39.5,60.8Z" transform="translate(0 0.03)" fill="none"/><path d="M23.9,113.3,8.6,128.6A9.35,9.35,0,0,0,6,135a9.05,9.05,0,0,0,9.4,9,9.15,9.15,0,0,0,8.6-9.3l-.1-21.4Z" transform="translate(0 0.03)" fill="none"/><path d="M134.7,126H113.3v.1l15.3,15.3h0A8.91,8.91,0,0,0,135,144a9.05,9.05,0,0,0,9-9.4A9.15,9.15,0,0,0,134.7,126Z" transform="translate(0 0.03)" fill="none"/><path d="M134.6,120H107.3L76.4,89.1h0L62.3,75h0L88.9,48.4a3.2,3.2,0,0,0,.3-4.2,3,3,0,0,0-4.4-.2L58.1,70.7h0l-28-28h0V15h0A15,15,0,1,0,4.7,25.9L24,45.2h0v59.5h0L4.4,124.4A15,15,0,0,0,13.9,150,15.18,15.18,0,0,0,30,134.7V107.4h0l28-28h0l40.7,40.7v.1H63.1a3.06,3.06,0,0,0-3.1,2.7,3,3,0,0,0,3,3.3h41.8l19.6,19.6h0A15.07,15.07,0,1,0,134.6,120ZM24,134.7a9.15,9.15,0,0,1-8.6,9.3A9,9,0,0,1,6,135a9.35,9.35,0,0,1,2.6-6.4l15.3-15.3H24ZM24,15V36.7h-.1L8.8,21.6A9.16,9.16,0,0,1,8.3,9a9,9,0,0,1,13-.3A8.53,8.53,0,0,1,24,15ZM53.8,75,30.1,98.7H30V51.3h.1l9.5,9.5h0L53.8,75ZM135,144a9.35,9.35,0,0,1-6.4-2.6h0l-15.3-15.3V126h21.4a9.15,9.15,0,0,1,9.3,8.6A9.05,9.05,0,0,1,135,144Z" transform="translate(0 0.03)" fill="url(#a)"/><path d="M104.1,63.2a3.21,3.21,0,0,0,4.2-.3l37.4-37.3h0A15,15,0,0,0,124.8,4.1l-.3.3h0L104,24.8a3.2,3.2,0,0,0-.3,4.2,3,3,0,0,0,4.4.2L128.6,8.7h0l.4-.4a9,9,0,0,1,12.3,13.1h0L103.8,58.9A3,3,0,0,0,104.1,63.2Z" transform="translate(0 0.03)" fill="url(#b)"/></svg>